<svg xmlns="http://www.w3.org/2000/svg" xmlns:xlink="http://www.w3.org/1999/xlink" width="100" zoomAndPan="magnify" viewBox="0 0 75 74.999997" height="100" preserveAspectRatio="xMidYMid meet" version="1.0"><defs><clipPath id="390f1b7e45"><path d="M 0 25 L 19 25 L 19 74.660156 L 0 74.660156 Z M 0 25 " clip-rule="nonzero"/></clipPath><clipPath id="ca9abcfe5b"><path d="M 18 25 L 38 25 L 38 74.660156 L 18 74.660156 Z M 18 25 " clip-rule="nonzero"/></clipPath><clipPath id="4e95767f80"><path d="M 37 25 L 56 25 L 56 74.660156 L 37 74.660156 Z M 37 25 " clip-rule="nonzero"/></clipPath><clipPath id="e45f544bc6"><path d="M 55 25 L 75 25 L 75 74.660156 L 55 74.660156 Z M 55 25 " clip-rule="nonzero"/></clipPath><clipPath id="1b105aa3c5"><path d="M 38 28 L 49 28 L 49 74.660156 L 38 74.660156 Z M 38 28 " clip-rule="nonzero"/></clipPath><clipPath id="e0fd880a1e"><path d="M 18 25 L 38 25 L 38 74.660156 L 18 74.660156 Z M 18 25 " clip-rule="nonzero"/></clipPath><clipPath id="5640295313"><path d="M 55 25 L 75 25 L 75 74.660156 L 55 74.660156 Z M 55 25 " clip-rule="nonzero"/></clipPath><clipPath id="5e65a3d448"><path d="M 21 0.410156 L 54 0.410156 L 54 42 L 21 42 Z M 21 0.410156 " clip-rule="nonzero"/></clipPath><clipPath id="87cb627159"><path d="M 26 0.410156 L 54 0.410156 L 54 40 L 26 40 Z M 26 0.410156 " clip-rule="nonzero"/></clipPath><clipPath id="fe0eed2927"><path d="M 0 30 L 7 30 L 7 74.660156 L 0 74.660156 Z M 0 30 " clip-rule="nonzero"/></clipPath><clipPath id="2072757b08"><path d="M 23 41.753906 L 28 41.753906 L 28 46 L 23 46 Z M 23 41.753906 " clip-rule="nonzero"/></clipPath><clipPath id="5663524cb7"><path d="M 10.394531 54 L 19 54 L 19 59 L 10.394531 59 Z M 10.394531 54 " clip-rule="nonzero"/></clipPath><clipPath id="8b7a8c80d8"><path d="M 19 52 L 26 52 L 26 63.503906 L 19 63.503906 Z M 19 52 " clip-rule="nonzero"/></clipPath><clipPath id="d7f44a42c5"><path d="M 23 46 L 30.644531 46 L 30.644531 53 L 23 53 Z M 23 46 " clip-rule="nonzero"/></clipPath><clipPath id="dd037ea4d1"><path d="M 39.867188 53 L 50 53 L 50 63.25 L 39.867188 63.25 Z M 39.867188 53 " clip-rule="nonzero"/></clipPath><clipPath id="238009077e"><path d="M 46.070312 46 L 64.617188 46 L 64.617188 63.25 L 46.070312 63.25 Z M 46.070312 46 " clip-rule="nonzero"/></clipPath><clipPath id="8ffb733932"><path d="M 55 43.046875 L 60 43.046875 L 60 48 L 55 48 Z M 55 43.046875 " clip-rule="nonzero"/></clipPath><clipPath id="673dec2e44"><path d="M 9 63.628906 L 67 63.628906 L 67 64.378906 L 9 64.378906 Z M 9 63.628906 " clip-rule="nonzero"/></clipPath></defs><rect x="-7.5" width="90" fill="#ffffff" y="-7.5" height="89.999996" fill-opacity="1"/><rect x="-7.5" width="90" fill="#ffffff" y="-7.5" height="89.999996" fill-opacity="1"/><rect x="-7.5" width="90" fill="#ffffff" y="-7.5" height="89.999996" fill-opacity="1"/><g clip-path="url(#390f1b7e45)"><path fill="#19bf70" d="M 18.191406 67.296875 L 0 74.628906 L 0.195312 33.492188 L 18.191406 25.476562 Z M 18.191406 67.296875 " fill-opacity="1" fill-rule="nonzero"/></g><g clip-path="url(#ca9abcfe5b)"><path fill="#1bea87" d="M 37.988281 74.640625 L 18.191406 67.296875 L 18.191406 25.476562 L 37.988281 33.492188 Z M 37.988281 74.640625 " fill-opacity="1" fill-rule="nonzero"/></g><g clip-path="url(#4e95767f80)"><path fill="#19bf70" d="M 55.953125 67.222656 L 37.988281 74.640625 L 37.988281 33.492188 L 55.953125 25.402344 Z M 55.953125 67.222656 " fill-opacity="1" fill-rule="nonzero"/></g><g clip-path="url(#e45f544bc6)"><path fill="#1bea87" d="M 75.75 74.570312 L 55.953125 67.222656 L 55.953125 25.402344 L 75.75 33.417969 Z M 75.75 74.570312 " fill-opacity="1" fill-rule="nonzero"/></g><g clip-path="url(#1b105aa3c5)"><path fill="#14a55d" d="M 46.113281 71.289062 L 38.023438 74.640625 L 38.023438 33.46875 L 48.359375 28.96875 L 43.191406 42.0625 Z M 46.113281 71.289062 " fill-opacity="1" fill-rule="nonzero"/></g><g clip-path="url(#e0fd880a1e)"><path fill="#1bea87" d="M 37.988281 74.640625 L 18.191406 67.296875 L 18.191406 25.476562 L 37.988281 33.492188 Z M 37.988281 74.640625 " fill-opacity="1" fill-rule="nonzero"/></g><g clip-path="url(#5640295313)"><path fill="#1bea87" d="M 75.75 74.570312 L 55.953125 67.222656 L 55.953125 25.402344 L 75.75 33.417969 Z M 75.75 74.570312 " fill-opacity="1" fill-rule="nonzero"/></g><g clip-path="url(#5e65a3d448)"><path fill="#33b1ff" d="M 37.800781 0.425781 C 29.015625 0.425781 21.894531 7.480469 21.894531 16.1875 C 21.894531 29.316406 37.800781 41.285156 37.800781 41.285156 C 37.800781 41.285156 53.707031 28.597656 53.707031 16.1875 C 53.707031 7.480469 46.585938 0.425781 37.800781 0.425781 Z M 37.800781 0.425781 " fill-opacity="1" fill-rule="nonzero"/></g><g clip-path="url(#87cb627159)"><path fill="#00cfff" d="M 40.296875 0.621094 C 32.699219 1.808594 26.886719 8.324219 26.886719 16.1875 C 26.886719 25.984375 35.746094 35.136719 40.242188 39.148438 C 44.699219 35.023438 53.707031 25.527344 53.707031 16.1875 C 53.707031 8.324219 47.894531 1.808594 40.296875 0.621094 Z M 40.296875 0.621094 " fill-opacity="1" fill-rule="nonzero"/></g><path fill="#c7cddd" d="M 43.945312 15.980469 C 43.945312 16.378906 43.90625 16.773438 43.828125 17.167969 C 43.75 17.558594 43.632812 17.941406 43.476562 18.308594 C 43.324219 18.679688 43.132812 19.03125 42.910156 19.363281 C 42.6875 19.695312 42.429688 20.003906 42.144531 20.285156 C 41.859375 20.570312 41.550781 20.820312 41.214844 21.042969 C 40.878906 21.265625 40.523438 21.453125 40.152344 21.605469 C 39.777344 21.761719 39.394531 21.875 38.996094 21.953125 C 38.601562 22.03125 38.203125 22.070312 37.796875 22.070312 C 37.394531 22.070312 36.996094 22.03125 36.597656 21.953125 C 36.203125 21.875 35.820312 21.761719 35.445312 21.605469 C 35.074219 21.453125 34.71875 21.265625 34.382812 21.042969 C 34.046875 20.820312 33.738281 20.570312 33.453125 20.285156 C 33.167969 20.003906 32.910156 19.695312 32.6875 19.363281 C 32.460938 19.03125 32.273438 18.679688 32.117188 18.308594 C 31.964844 17.941406 31.847656 17.558594 31.769531 17.167969 C 31.691406 16.773438 31.652344 16.378906 31.652344 15.980469 C 31.652344 15.578125 31.691406 15.183594 31.769531 14.789062 C 31.847656 14.398438 31.964844 14.015625 32.117188 13.648438 C 32.273438 13.277344 32.460938 12.925781 32.6875 12.59375 C 32.910156 12.261719 33.167969 11.953125 33.453125 11.671875 C 33.738281 11.386719 34.046875 11.136719 34.382812 10.914062 C 34.71875 10.691406 35.074219 10.503906 35.445312 10.351562 C 35.820312 10.199219 36.203125 10.082031 36.597656 10.003906 C 36.996094 9.925781 37.394531 9.886719 37.796875 9.886719 C 38.203125 9.886719 38.601562 9.925781 38.996094 10.003906 C 39.394531 10.082031 39.777344 10.199219 40.152344 10.351562 C 40.523438 10.503906 40.878906 10.691406 41.214844 10.914062 C 41.550781 11.136719 41.859375 11.386719 42.144531 11.671875 C 42.429688 11.953125 42.6875 12.261719 42.910156 12.59375 C 43.132812 12.925781 43.324219 13.277344 43.476562 13.648438 C 43.632812 14.015625 43.75 14.398438 43.828125 14.789062 C 43.90625 15.183594 43.945312 15.578125 43.945312 15.980469 Z M 43.945312 15.980469 " fill-opacity="1" fill-rule="nonzero"/><path fill="#ffffff" d="M 39.046875 10.011719 C 36.25 10.585938 34.148438 13.039062 34.148438 15.980469 C 34.148438 18.917969 36.25 21.371094 39.046875 21.945312 C 41.84375 21.371094 43.945312 18.917969 43.945312 15.980469 C 43.945312 13.039062 41.84375 10.585938 39.046875 10.011719 Z M 39.046875 10.011719 " fill-opacity="1" fill-rule="nonzero"/><g clip-path="url(#fe0eed2927)"><path fill="#18a05c" d="M 6.277344 30.785156 L 0.195312 33.492188 L 0 74.628906 L 6.976562 71.816406 L 3.488281 40.679688 Z M 6.277344 30.785156 " fill-opacity="1" fill-rule="nonzero"/></g><path fill="#05304b" d="M 22.042969 46.242188 C 22.296875 45.738281 22.816406 45.554688 23.089844 45.738281 L 25.082031 47.0625 C 25.355469 47.246094 25.226562 47.976562 25.042969 48.25 L 20.785156 55.019531 C 20.59375 55.292969 20.363281 55.382812 20.089844 55.199219 L 18.773438 54.398438 C 17.628906 53.433594 17.84375 52.589844 18.476562 51.496094 Z M 22.042969 46.242188 " fill-opacity="1" fill-rule="nonzero"/><g clip-path="url(#2072757b08)"><path fill="#05304b" d="M 27.984375 43.769531 C 27.984375 44.03125 27.933594 44.285156 27.832031 44.53125 C 27.730469 44.773438 27.585938 44.988281 27.398438 45.175781 C 27.207031 45.363281 26.992188 45.507812 26.746094 45.609375 C 26.5 45.710938 26.242188 45.761719 25.976562 45.761719 C 25.710938 45.761719 25.453125 45.710938 25.210938 45.609375 C 24.964844 45.507812 24.746094 45.363281 24.558594 45.175781 C 24.371094 44.988281 24.222656 44.773438 24.121094 44.53125 C 24.019531 44.285156 23.96875 44.03125 23.96875 43.769531 C 23.96875 43.503906 24.019531 43.25 24.121094 43.007812 C 24.222656 42.761719 24.371094 42.546875 24.558594 42.359375 C 24.746094 42.171875 24.964844 42.027344 25.210938 41.929688 C 25.453125 41.828125 25.710938 41.777344 25.976562 41.777344 C 26.242188 41.777344 26.5 41.828125 26.746094 41.929688 C 26.992188 42.027344 27.207031 42.171875 27.398438 42.359375 C 27.585938 42.546875 27.730469 42.761719 27.832031 43.007812 C 27.933594 43.25 27.984375 43.503906 27.984375 43.769531 Z M 27.984375 43.769531 " fill-opacity="1" fill-rule="nonzero"/></g><path fill="#05304b" d="M 22.820312 45.632812 L 19.203125 44.851562 C 18.921875 44.792969 18.632812 44.847656 18.398438 45.007812 L 15.421875 47.285156 C 14.933594 47.707031 14.464844 48.230469 14.789062 48.703125 C 14.996094 49.007812 15.699219 48.835938 16.070312 48.613281 L 19.195312 46.96875 L 22.375 47.65625 C 22.9375 47.777344 23.492188 47.421875 23.617188 46.863281 C 23.738281 46.304688 23.382812 45.753906 22.820312 45.632812 Z M 22.820312 45.632812 " fill-opacity="1" fill-rule="nonzero"/><g clip-path="url(#5663524cb7)"><path fill="#05304b" d="M 17.195312 54.339844 L 16.007812 55.976562 C 16.007812 55.976562 12.890625 56.191406 11.777344 56.257812 C 10.925781 56.308594 10.414062 56.621094 10.414062 57.171875 C 10.414062 57.71875 10.84375 58.027344 12.074219 58.125 C 13.109375 58.207031 16.652344 58.421875 16.652344 58.421875 C 16.65625 58.421875 16.660156 58.421875 16.664062 58.421875 C 17.078125 58.421875 17.511719 58.203125 17.796875 57.789062 L 18.957031 56.089844 C 18.953125 56.089844 17.3125 54.988281 17.195312 54.339844 Z M 17.195312 54.339844 " fill-opacity="1" fill-rule="nonzero"/></g><g clip-path="url(#8b7a8c80d8)"><path fill="#05304b" d="M 24.988281 55.519531 L 21.355469 53.050781 C 20.785156 52.664062 20.003906 52.808594 19.617188 53.375 C 19.226562 53.941406 19.371094 54.710938 19.941406 55.097656 L 22.714844 56.984375 L 21.066406 61.019531 C 20.445312 62.5 20.609375 63.132812 21.035156 63.3125 C 21.460938 63.488281 22.035156 63.410156 22.917969 61.800781 L 25.425781 57.050781 C 25.667969 56.503906 25.484375 55.859375 24.988281 55.519531 Z M 24.988281 55.519531 " fill-opacity="1" fill-rule="nonzero"/></g><g clip-path="url(#d7f44a42c5)"><path fill="#05304b" d="M 29.316406 50.898438 L 26.757812 50.683594 L 25.292969 47.394531 C 25.058594 46.875 24.441406 46.636719 23.917969 46.871094 C 23.390625 47.105469 23.15625 47.714844 23.390625 48.238281 L 24.980469 51.773438 C 25.128906 52.105469 25.46875 52.425781 25.832031 52.46875 C 25.832031 52.46875 28.367188 52.414062 29.058594 52.375 C 29.785156 52.335938 30.601562 52.203125 30.621094 51.707031 C 30.648438 51 29.972656 50.945312 29.316406 50.898438 Z M 29.316406 50.898438 " fill-opacity="1" fill-rule="nonzero"/></g><g clip-path="url(#dd037ea4d1)"><path fill="#05304b" d="M 44.734375 54.324219 C 47.015625 54.265625 48.917969 56.019531 48.980469 58.242188 C 48.980469 58.28125 48.980469 58.324219 48.980469 58.363281 C 49 60.585938 47.164062 62.402344 44.878906 62.421875 C 42.597656 62.441406 40.730469 60.652344 40.710938 58.429688 C 40.710938 58.40625 40.710938 58.382812 40.710938 58.363281 C 40.707031 56.175781 42.492188 54.382812 44.734375 54.324219 Z M 44.730469 53.488281 C 42.015625 53.550781 39.855469 55.714844 39.867188 58.363281 C 39.847656 61.042969 42.058594 63.226562 44.808594 63.25 C 47.5625 63.269531 49.808594 61.113281 49.828125 58.433594 C 49.828125 58.410156 49.828125 58.386719 49.828125 58.363281 C 49.84375 55.679688 47.625 53.496094 44.875 53.484375 C 44.824219 53.484375 44.777344 53.484375 44.730469 53.488281 " fill-opacity="1" fill-rule="nonzero"/></g><g clip-path="url(#238009077e)"><path fill="#05304b" d="M 59.855469 54.339844 C 62.136719 54.445312 63.894531 56.332031 63.785156 58.558594 C 63.675781 60.777344 61.738281 62.492188 59.457031 62.382812 C 57.175781 62.277344 55.417969 60.390625 55.527344 58.167969 C 55.59375 56.8125 56.355469 55.585938 57.546875 54.894531 L 59.273438 58.53125 C 59.378906 58.734375 59.636719 58.8125 59.84375 58.710938 C 60.035156 58.609375 60.121094 58.386719 60.042969 58.191406 L 58.316406 54.550781 C 58.808594 54.386719 59.335938 54.3125 59.855469 54.339844 Z M 53.160156 46.046875 C 52.878906 46.042969 52.601562 46.109375 52.359375 46.25 L 46.90625 49.355469 C 46.183594 49.765625 45.941406 50.667969 46.363281 51.367188 C 46.503906 51.601562 46.707031 51.792969 46.949219 51.921875 L 51.164062 54.140625 L 51.164062 58.304688 C 51.175781 58.789062 51.59375 59.175781 52.09375 59.160156 C 52.574219 59.148438 52.964844 58.769531 52.976562 58.304688 L 52.976562 53.789062 C 52.976562 53.355469 52.734375 52.957031 52.34375 52.753906 L 50.207031 51.625 C 50.058594 51.546875 50.003906 51.367188 50.085938 51.226562 C 50.117188 51.179688 50.15625 51.136719 50.207031 51.113281 L 53.335938 49.359375 C 53.484375 49.277344 53.664062 49.328125 53.75 49.46875 C 53.753906 49.476562 53.757812 49.484375 53.761719 49.488281 L 54.820312 51.648438 C 54.921875 51.851562 55.132812 51.984375 55.367188 51.984375 L 56.175781 51.984375 L 57.199219 54.144531 C 54.8125 55.472656 53.976562 58.433594 55.335938 60.761719 C 56.695312 63.089844 59.734375 63.902344 62.125 62.578125 C 64.515625 61.253906 65.351562 58.289062 63.992188 55.960938 C 62.792969 53.910156 60.25 52.996094 57.96875 53.800781 L 57.109375 51.984375 L 58.984375 51.984375 C 59.484375 51.984375 59.890625 51.585938 59.890625 51.097656 C 59.890625 50.613281 59.484375 50.214844 58.984375 50.214844 L 56.316406 50.214844 C 56.203125 50.214844 56.097656 50.148438 56.046875 50.046875 L 54.484375 46.882812 C 54.242188 46.382812 53.726562 46.0625 53.160156 46.046875 " fill-opacity="1" fill-rule="nonzero"/></g><g clip-path="url(#8ffb733932)"><path fill="#05304b" d="M 59.570312 45.289062 C 59.578125 44.066406 58.570312 43.070312 57.316406 43.0625 C 56.0625 43.050781 55.039062 44.035156 55.03125 45.257812 C 55.03125 45.265625 55.03125 45.277344 55.03125 45.289062 C 55.023438 46.507812 56.03125 47.507812 57.285156 47.515625 C 58.535156 47.523438 59.5625 46.542969 59.570312 45.316406 C 59.570312 45.308594 59.570312 45.300781 59.570312 45.289062 " fill-opacity="1" fill-rule="nonzero"/></g><g clip-path="url(#673dec2e44)"><path fill="#05304b" d="M 66.222656 64.375 L 9.527344 64.375 L 9.527344 63.628906 L 66.222656 63.628906 L 66.222656 64.375 " fill-opacity="1" fill-rule="nonzero"/></g></svg>