<svg xmlns="http://www.w3.org/2000/svg" xmlns:xlink="http://www.w3.org/1999/xlink" width="100" zoomAndPan="magnify" viewBox="0 0 75 74.999997" height="100" preserveAspectRatio="xMidYMid meet" version="1.0"><defs><clipPath id="d8ea650568"><path d="M 5.390625 27 L 21 27 L 21 69.515625 L 5.390625 69.515625 Z M 5.390625 27 " clip-rule="nonzero"/></clipPath><clipPath id="38e89aff3a"><path d="M 20 27 L 38 27 L 38 69.515625 L 20 69.515625 Z M 20 27 " clip-rule="nonzero"/></clipPath><clipPath id="51ca2682df"><path d="M 37 27 L 54 27 L 54 69.515625 L 37 69.515625 Z M 37 27 " clip-rule="nonzero"/></clipPath><clipPath id="979cc94181"><path d="M 53 27 L 69.890625 27 L 69.890625 69.515625 L 53 69.515625 Z M 53 27 " clip-rule="nonzero"/></clipPath><clipPath id="d4a520446f"><path d="M 37 30 L 47 30 L 47 69.515625 L 37 69.515625 Z M 37 30 " clip-rule="nonzero"/></clipPath><clipPath id="7b61a6c4a7"><path d="M 20 27 L 38 27 L 38 69.515625 L 20 69.515625 Z M 20 27 " clip-rule="nonzero"/></clipPath><clipPath id="e2181b5f88"><path d="M 53 27 L 69.890625 27 L 69.890625 69.515625 L 53 69.515625 Z M 53 27 " clip-rule="nonzero"/></clipPath><clipPath id="6eddceba7a"><path d="M 24 5.765625 L 52 5.765625 L 52 41 L 24 41 Z M 24 5.765625 " clip-rule="nonzero"/></clipPath><clipPath id="3df4b58f8f"><path d="M 28 5.765625 L 52 5.765625 L 52 40 L 28 40 Z M 28 5.765625 " clip-rule="nonzero"/></clipPath><clipPath id="f5a2f00f33"><path d="M 5.390625 31 L 12 31 L 12 69.515625 L 5.390625 69.515625 Z M 5.390625 31 " clip-rule="nonzero"/></clipPath></defs><rect x="-7.5" width="90" fill="#ffffff" y="-7.5" height="89.999996" fill-opacity="1"/><rect x="-7.5" width="90" fill="#ffffff" y="-7.5" height="89.999996" fill-opacity="1"/><rect x="-7.5" width="90" fill="#2d3439" y="-7.5" height="89.999996" fill-opacity="1"/><g clip-path="url(#d8ea650568)"><path fill="#19bf70" d="M 20.886719 63.207031 L 5.402344 69.507812 L 5.570312 34.171875 L 20.886719 27.285156 Z M 20.886719 63.207031 " fill-opacity="1" fill-rule="nonzero"/></g><g clip-path="url(#38e89aff3a)"><path fill="#1bea87" d="M 37.734375 69.515625 L 20.886719 63.207031 L 20.886719 27.285156 L 37.734375 34.171875 Z M 37.734375 69.515625 " fill-opacity="1" fill-rule="nonzero"/></g><g clip-path="url(#51ca2682df)"><path fill="#19bf70" d="M 53.027344 63.144531 L 37.734375 69.515625 L 37.734375 34.171875 L 53.027344 27.222656 Z M 53.027344 63.144531 " fill-opacity="1" fill-rule="nonzero"/></g><g clip-path="url(#979cc94181)"><path fill="#1bea87" d="M 69.878906 69.453125 L 53.027344 63.144531 L 53.027344 27.222656 L 69.878906 34.109375 Z M 69.878906 69.453125 " fill-opacity="1" fill-rule="nonzero"/></g><g clip-path="url(#d4a520446f)"><path fill="#14a55d" d="M 44.652344 66.636719 L 37.765625 69.515625 L 37.765625 34.152344 L 46.566406 30.285156 L 42.167969 41.53125 Z M 44.652344 66.636719 " fill-opacity="1" fill-rule="nonzero"/></g><g clip-path="url(#7b61a6c4a7)"><path fill="#1bea87" d="M 37.734375 69.515625 L 20.886719 63.207031 L 20.886719 27.285156 L 37.734375 34.171875 Z M 37.734375 69.515625 " fill-opacity="1" fill-rule="nonzero"/></g><g clip-path="url(#e2181b5f88)"><path fill="#1bea87" d="M 69.878906 69.453125 L 53.027344 63.144531 L 53.027344 27.222656 L 69.878906 34.109375 Z M 69.878906 69.453125 " fill-opacity="1" fill-rule="nonzero"/></g><g clip-path="url(#6eddceba7a)"><path fill="#33b1ff" d="M 37.578125 5.765625 C 30.101562 5.765625 24.039062 11.828125 24.039062 19.304688 C 24.039062 30.582031 37.578125 40.863281 37.578125 40.863281 C 37.578125 40.863281 51.117188 29.964844 51.117188 19.304688 C 51.117188 11.828125 45.054688 5.765625 37.578125 5.765625 Z M 37.578125 5.765625 " fill-opacity="1" fill-rule="nonzero"/></g><g clip-path="url(#3df4b58f8f)"><path fill="#00cfff" d="M 39.703125 5.933594 C 33.234375 6.953125 28.289062 12.550781 28.289062 19.304688 C 28.289062 27.722656 35.828125 35.582031 39.65625 39.03125 C 43.449219 35.484375 51.117188 27.328125 51.117188 19.304688 C 51.117188 12.550781 46.171875 6.953125 39.703125 5.933594 Z M 39.703125 5.933594 " fill-opacity="1" fill-rule="nonzero"/></g><path fill="#c7cddd" d="M 42.808594 19.125 C 42.808594 19.46875 42.773438 19.8125 42.707031 20.148438 C 42.640625 20.484375 42.542969 20.8125 42.410156 21.128906 C 42.277344 21.445312 42.117188 21.75 41.925781 22.035156 C 41.734375 22.320312 41.519531 22.585938 41.277344 22.828125 C 41.03125 23.070312 40.769531 23.285156 40.484375 23.476562 C 40.199219 23.667969 39.894531 23.828125 39.578125 23.960938 C 39.261719 24.09375 38.933594 24.191406 38.597656 24.257812 C 38.261719 24.328125 37.917969 24.359375 37.574219 24.359375 C 37.234375 24.359375 36.890625 24.328125 36.554688 24.257812 C 36.21875 24.191406 35.890625 24.09375 35.574219 23.960938 C 35.257812 23.828125 34.953125 23.667969 34.667969 23.476562 C 34.382812 23.285156 34.117188 23.070312 33.875 22.828125 C 33.632812 22.585938 33.417969 22.320312 33.226562 22.035156 C 33.035156 21.75 32.875 21.445312 32.742188 21.128906 C 32.609375 20.8125 32.511719 20.484375 32.445312 20.148438 C 32.378906 19.8125 32.34375 19.46875 32.34375 19.125 C 32.34375 18.785156 32.378906 18.441406 32.445312 18.105469 C 32.511719 17.769531 32.609375 17.441406 32.742188 17.125 C 32.875 16.808594 33.035156 16.503906 33.226562 16.21875 C 33.417969 15.933594 33.632812 15.667969 33.875 15.425781 C 34.117188 15.183594 34.382812 14.964844 34.667969 14.777344 C 34.953125 14.585938 35.257812 14.421875 35.574219 14.292969 C 35.890625 14.160156 36.21875 14.0625 36.554688 13.996094 C 36.890625 13.925781 37.234375 13.894531 37.574219 13.894531 C 37.917969 13.894531 38.261719 13.925781 38.597656 13.996094 C 38.933594 14.0625 39.261719 14.160156 39.578125 14.292969 C 39.894531 14.421875 40.199219 14.585938 40.484375 14.777344 C 40.769531 14.964844 41.03125 15.183594 41.277344 15.425781 C 41.519531 15.667969 41.734375 15.933594 41.925781 16.21875 C 42.117188 16.503906 42.277344 16.808594 42.410156 17.125 C 42.542969 17.441406 42.640625 17.769531 42.707031 18.105469 C 42.773438 18.441406 42.808594 18.785156 42.808594 19.125 Z M 42.808594 19.125 " fill-opacity="1" fill-rule="nonzero"/><path fill="#ffffff" d="M 38.640625 14.003906 C 36.257812 14.492188 34.46875 16.601562 34.46875 19.125 C 34.46875 21.652344 36.257812 23.761719 38.640625 24.25 C 41.019531 23.761719 42.808594 21.652344 42.808594 19.125 C 42.808594 16.601562 41.019531 14.492188 38.640625 14.003906 Z M 38.640625 14.003906 " fill-opacity="1" fill-rule="nonzero"/><g clip-path="url(#f5a2f00f33)"><path fill="#18a05c" d="M 10.746094 31.84375 L 5.570312 34.171875 L 5.402344 69.507812 L 11.34375 67.089844 L 8.371094 40.34375 Z M 10.746094 31.84375 " fill-opacity="1" fill-rule="nonzero"/></g></svg>