<svg xmlns="http://www.w3.org/2000/svg" xmlns:xlink="http://www.w3.org/1999/xlink" width="350" zoomAndPan="magnify" viewBox="0 0 262.5 112.499997" height="150" preserveAspectRatio="xMidYMid meet" version="1.0"><defs><g/><clipPath id="3b001a08aa"><path d="M 8.992188 39 L 34 39 L 34 106.175781 L 8.992188 106.175781 Z M 8.992188 39 " clip-rule="nonzero"/></clipPath><clipPath id="6b4cfed5e3"><path d="M 33 39 L 60 39 L 60 106.175781 L 33 106.175781 Z M 33 39 " clip-rule="nonzero"/></clipPath><clipPath id="c5997e4fa8"><path d="M 59 39 L 85 39 L 85 106.175781 L 59 106.175781 Z M 59 39 " clip-rule="nonzero"/></clipPath><clipPath id="bdb6738772"><path d="M 84 39 L 110.597656 39 L 110.597656 106.175781 L 84 106.175781 Z M 84 39 " clip-rule="nonzero"/></clipPath><clipPath id="243a969798"><path d="M 59 44 L 74 44 L 74 106.175781 L 59 106.175781 Z M 59 44 " clip-rule="nonzero"/></clipPath><clipPath id="c688bc1760"><path d="M 33 39 L 60 39 L 60 106.175781 L 33 106.175781 Z M 33 39 " clip-rule="nonzero"/></clipPath><clipPath id="797ca22b96"><path d="M 84 39 L 110.597656 39 L 110.597656 106.175781 L 84 106.175781 Z M 84 39 " clip-rule="nonzero"/></clipPath><clipPath id="30f344c66b"><path d="M 38 5.917969 L 82 5.917969 L 82 62 L 38 62 Z M 38 5.917969 " clip-rule="nonzero"/></clipPath><clipPath id="a9a3e07bd0"><path d="M 8.992188 46 L 19 46 L 19 106.175781 L 8.992188 106.175781 Z M 8.992188 46 " clip-rule="nonzero"/></clipPath><clipPath id="8367c9aeb4"><path d="M 41 61.558594 L 47 61.558594 L 47 68 L 41 68 Z M 41 61.558594 " clip-rule="nonzero"/></clipPath><clipPath id="b748080730"><path d="M 40 68 L 49.890625 68 L 49.890625 77 L 40 77 Z M 40 68 " clip-rule="nonzero"/></clipPath><clipPath id="39b964e47f"><path d="M 62.644531 77 L 76 77 L 76 90.816406 L 62.644531 90.816406 Z M 62.644531 77 " clip-rule="nonzero"/></clipPath><clipPath id="bcfa95bc19"><path d="M 71 67.0625 L 95.617188 67.0625 L 95.617188 90.816406 L 71 90.816406 Z M 71 67.0625 " clip-rule="nonzero"/></clipPath><clipPath id="372b9923bb"><path d="M 82 63.292969 L 89 63.292969 L 89 70 L 82 70 Z M 82 63.292969 " clip-rule="nonzero"/></clipPath><clipPath id="22432d38cf"><path d="M 21 90.996094 L 99 90.996094 L 99 91.667969 L 21 91.667969 Z M 21 90.996094 " clip-rule="nonzero"/></clipPath></defs><g clip-path="url(#3b001a08aa)"><path fill="#19bf70" d="M 33.386719 96.234375 L 8.992188 106.136719 L 9.253906 50.589844 L 33.386719 39.765625 Z M 33.386719 96.234375 " fill-opacity="1" fill-rule="nonzero"/></g><g clip-path="url(#6b4cfed5e3)"><path fill="#1bea87" d="M 59.941406 106.152344 L 33.386719 96.234375 L 33.386719 39.765625 L 59.941406 50.589844 Z M 59.941406 106.152344 " fill-opacity="1" fill-rule="nonzero"/></g><g clip-path="url(#c5997e4fa8)"><path fill="#19bf70" d="M 84.042969 96.136719 L 59.941406 106.152344 L 59.941406 50.589844 L 84.042969 39.667969 Z M 84.042969 96.136719 " fill-opacity="1" fill-rule="nonzero"/></g><g clip-path="url(#bdb6738772)"><path fill="#1bea87" d="M 110.597656 106.054688 L 84.042969 96.136719 L 84.042969 39.667969 L 110.597656 50.488281 Z M 110.597656 106.054688 " fill-opacity="1" fill-rule="nonzero"/></g><g clip-path="url(#243a969798)"><path fill="#14a55d" d="M 70.839844 101.628906 L 59.992188 106.152344 L 59.992188 50.558594 L 73.855469 44.480469 L 66.921875 62.160156 Z M 70.839844 101.628906 " fill-opacity="1" fill-rule="nonzero"/></g><g clip-path="url(#c688bc1760)"><path fill="#1bea87" d="M 59.941406 106.152344 L 33.386719 96.234375 L 33.386719 39.765625 L 59.941406 50.589844 Z M 59.941406 106.152344 " fill-opacity="1" fill-rule="nonzero"/></g><g clip-path="url(#797ca22b96)"><path fill="#1bea87" d="M 110.597656 106.054688 L 84.042969 96.136719 L 84.042969 39.667969 L 110.597656 50.488281 Z M 110.597656 106.054688 " fill-opacity="1" fill-rule="nonzero"/></g><g clip-path="url(#30f344c66b)"><path fill="#33b1ff" d="M 59.695312 5.941406 C 47.910156 5.941406 38.359375 15.46875 38.359375 27.222656 C 38.359375 44.949219 59.695312 61.113281 59.695312 61.113281 C 59.695312 61.113281 81.027344 43.976562 81.027344 27.222656 C 81.027344 15.46875 71.476562 5.941406 59.695312 5.941406 Z M 59.695312 5.941406 " fill-opacity="1" fill-rule="nonzero"/></g><path fill="#00cfff" d="M 63.042969 6.203125 C 52.851562 7.804688 45.058594 16.605469 45.058594 27.222656 C 45.058594 40.453125 56.9375 52.808594 62.96875 58.226562 C 68.945312 52.652344 81.027344 39.832031 81.027344 27.222656 C 81.027344 16.605469 73.234375 7.804688 63.042969 6.203125 Z M 63.042969 6.203125 " fill-opacity="1" fill-rule="nonzero"/><path fill="#c7cddd" d="M 67.9375 26.941406 C 67.9375 27.480469 67.882812 28.015625 67.777344 28.546875 C 67.671875 29.074219 67.515625 29.589844 67.308594 30.089844 C 67.101562 30.585938 66.847656 31.0625 66.546875 31.511719 C 66.246094 31.960938 65.902344 32.375 65.519531 32.757812 C 65.136719 33.140625 64.722656 33.480469 64.273438 33.78125 C 63.820312 34.082031 63.347656 34.332031 62.847656 34.539062 C 62.347656 34.746094 61.832031 34.902344 61.300781 35.007812 C 60.769531 35.113281 60.230469 35.167969 59.691406 35.167969 C 59.148438 35.167969 58.613281 35.113281 58.082031 35.007812 C 57.550781 34.902344 57.035156 34.746094 56.535156 34.539062 C 56.035156 34.332031 55.558594 34.082031 55.109375 33.78125 C 54.660156 33.480469 54.242188 33.140625 53.859375 32.757812 C 53.476562 32.375 53.136719 31.960938 52.835938 31.511719 C 52.535156 31.0625 52.28125 30.585938 52.074219 30.089844 C 51.867188 29.589844 51.707031 29.074219 51.601562 28.546875 C 51.496094 28.015625 51.445312 27.480469 51.445312 26.941406 C 51.445312 26.398438 51.496094 25.867188 51.601562 25.335938 C 51.707031 24.804688 51.867188 24.292969 52.074219 23.792969 C 52.28125 23.292969 52.535156 22.820312 52.835938 22.371094 C 53.136719 21.921875 53.476562 21.503906 53.859375 21.125 C 54.242188 20.742188 54.660156 20.402344 55.109375 20.101562 C 55.558594 19.800781 56.035156 19.546875 56.535156 19.339844 C 57.035156 19.132812 57.550781 18.976562 58.082031 18.871094 C 58.613281 18.765625 59.148438 18.714844 59.691406 18.714844 C 60.230469 18.714844 60.769531 18.765625 61.300781 18.871094 C 61.832031 18.976562 62.347656 19.132812 62.847656 19.339844 C 63.347656 19.546875 63.820312 19.800781 64.273438 20.101562 C 64.722656 20.402344 65.136719 20.742188 65.519531 21.125 C 65.902344 21.503906 66.246094 21.921875 66.546875 22.371094 C 66.847656 22.820312 67.101562 23.292969 67.308594 23.792969 C 67.515625 24.292969 67.671875 24.804688 67.777344 25.335938 C 67.882812 25.867188 67.9375 26.398438 67.9375 26.941406 Z M 67.9375 26.941406 " fill-opacity="1" fill-rule="nonzero"/><path fill="#ffffff" d="M 61.367188 18.882812 C 57.617188 19.65625 54.796875 22.96875 54.796875 26.941406 C 54.796875 30.910156 57.617188 34.222656 61.367188 34.996094 C 65.117188 34.222656 67.9375 30.910156 67.9375 26.941406 C 67.9375 22.96875 65.117188 19.65625 61.367188 18.882812 Z M 61.367188 18.882812 " fill-opacity="1" fill-rule="nonzero"/><g clip-path="url(#a9a3e07bd0)"><path fill="#18a05c" d="M 17.410156 46.929688 L 9.253906 50.589844 L 8.992188 106.136719 L 18.351562 102.335938 L 13.671875 60.292969 Z M 17.410156 46.929688 " fill-opacity="1" fill-rule="nonzero"/></g><path fill="#05304b" d="M 38.460938 67.664062 C 38.796875 66.980469 39.488281 66.734375 39.855469 66.980469 L 42.5 68.785156 C 42.863281 69.035156 42.695312 70.027344 42.449219 70.398438 L 36.789062 79.617188 C 36.539062 79.988281 36.230469 80.109375 35.863281 79.855469 L 34.117188 78.769531 C 32.597656 77.453125 32.878906 76.308594 33.722656 74.820312 Z M 38.460938 67.664062 " fill-opacity="1" fill-rule="nonzero"/><g clip-path="url(#8367c9aeb4)"><path fill="#05304b" d="M 46.359375 64.300781 C 46.359375 64.660156 46.292969 65.003906 46.15625 65.335938 C 46.019531 65.667969 45.828125 65.960938 45.578125 66.214844 C 45.328125 66.472656 45.039062 66.667969 44.710938 66.804688 C 44.386719 66.941406 44.042969 67.011719 43.691406 67.011719 C 43.335938 67.011719 42.996094 66.941406 42.667969 66.804688 C 42.34375 66.667969 42.054688 66.472656 41.804688 66.214844 C 41.554688 65.960938 41.359375 65.667969 41.226562 65.335938 C 41.089844 65.003906 41.023438 64.660156 41.023438 64.300781 C 41.023438 63.941406 41.089844 63.59375 41.226562 63.261719 C 41.359375 62.929688 41.554688 62.636719 41.804688 62.382812 C 42.054688 62.128906 42.34375 61.933594 42.667969 61.792969 C 42.996094 61.65625 43.335938 61.585938 43.691406 61.585938 C 44.042969 61.585938 44.386719 61.65625 44.710938 61.792969 C 45.039062 61.933594 45.328125 62.128906 45.578125 62.382812 C 45.828125 62.636719 46.019531 62.929688 46.15625 63.261719 C 46.292969 63.59375 46.359375 63.941406 46.359375 64.300781 Z M 46.359375 64.300781 " fill-opacity="1" fill-rule="nonzero"/></g><path fill="#05304b" d="M 39.496094 66.835938 L 34.6875 65.773438 C 34.316406 65.695312 33.929688 65.769531 33.617188 65.984375 L 29.664062 69.085938 C 29.011719 69.660156 28.390625 70.375 28.820312 71.015625 C 29.09375 71.433594 30.03125 71.195312 30.523438 70.894531 L 34.675781 68.652344 L 38.90625 69.589844 C 39.652344 69.757812 40.390625 69.273438 40.554688 68.515625 C 40.714844 67.753906 40.242188 67 39.496094 66.835938 Z M 39.496094 66.835938 " fill-opacity="1" fill-rule="nonzero"/><path fill="#05304b" d="M 32.019531 78.691406 L 30.441406 80.917969 C 30.441406 80.917969 26.296875 81.210938 24.816406 81.296875 C 23.683594 81.367188 23.003906 81.796875 23.003906 82.542969 C 23.003906 83.289062 23.578125 83.710938 25.210938 83.84375 C 26.589844 83.957031 31.296875 84.246094 31.296875 84.246094 C 31.304688 84.246094 31.308594 84.246094 31.3125 84.246094 C 31.863281 84.246094 32.441406 83.949219 32.820312 83.382812 L 34.355469 81.074219 C 34.355469 81.070312 32.175781 79.574219 32.019531 78.691406 Z M 32.019531 78.691406 " fill-opacity="1" fill-rule="nonzero"/><path fill="#05304b" d="M 42.375 80.296875 L 37.546875 76.933594 C 36.789062 76.410156 35.753906 76.605469 35.234375 77.375 C 34.714844 78.144531 34.910156 79.195312 35.667969 79.722656 L 39.355469 82.289062 L 37.164062 87.78125 C 36.339844 89.796875 36.554688 90.660156 37.121094 90.902344 C 37.6875 91.144531 38.449219 91.035156 39.625 88.84375 L 42.957031 82.378906 C 43.28125 81.632812 43.039062 80.757812 42.375 80.296875 Z M 42.375 80.296875 " fill-opacity="1" fill-rule="nonzero"/><g clip-path="url(#b748080730)"><path fill="#05304b" d="M 48.128906 74.007812 L 44.726562 73.710938 L 42.78125 69.234375 C 42.46875 68.527344 41.648438 68.207031 40.953125 68.523438 C 40.253906 68.84375 39.941406 69.675781 40.253906 70.386719 L 42.367188 75.195312 C 42.566406 75.644531 43.011719 76.082031 43.496094 76.140625 C 43.496094 76.140625 46.867188 76.070312 47.789062 76.015625 C 48.753906 75.964844 49.835938 75.78125 49.863281 75.105469 C 49.898438 74.140625 49 74.070312 48.128906 74.007812 Z M 48.128906 74.007812 " fill-opacity="1" fill-rule="nonzero"/></g><g clip-path="url(#39b964e47f)"><path fill="#05304b" d="M 69.128906 78.664062 C 72.167969 78.582031 74.699219 80.972656 74.78125 84 C 74.78125 84.050781 74.78125 84.109375 74.78125 84.160156 C 74.808594 87.1875 72.359375 89.667969 69.320312 89.691406 C 66.277344 89.714844 63.792969 87.277344 63.769531 84.25 C 63.769531 84.21875 63.769531 84.191406 63.769531 84.160156 C 63.761719 81.183594 66.136719 78.742188 69.128906 78.664062 Z M 69.117188 77.519531 C 65.503906 77.605469 62.625 80.558594 62.644531 84.160156 C 62.617188 87.8125 65.5625 90.789062 69.226562 90.816406 C 72.890625 90.847656 75.882812 87.910156 75.914062 84.261719 C 75.914062 84.226562 75.914062 84.191406 75.914062 84.160156 C 75.929688 80.511719 72.976562 77.535156 69.3125 77.515625 C 69.246094 77.515625 69.183594 77.515625 69.117188 77.519531 " fill-opacity="1" fill-rule="nonzero"/></g><g clip-path="url(#bcfa95bc19)"><path fill="#05304b" d="M 89.269531 78.679688 C 92.3125 78.828125 94.652344 81.398438 94.503906 84.425781 C 94.359375 87.453125 91.777344 89.785156 88.738281 89.640625 C 85.699219 89.496094 83.355469 86.921875 83.507812 83.894531 C 83.59375 82.054688 84.605469 80.378906 86.195312 79.441406 L 88.492188 84.394531 C 88.636719 84.667969 88.976562 84.777344 89.253906 84.632812 C 89.511719 84.5 89.625 84.191406 89.519531 83.925781 L 87.21875 78.96875 C 87.878906 78.746094 88.574219 78.644531 89.269531 78.679688 Z M 80.347656 67.386719 C 79.976562 67.378906 79.605469 67.472656 79.285156 67.660156 L 72.015625 71.890625 C 71.058594 72.449219 70.734375 73.679688 71.296875 74.636719 C 71.484375 74.949219 71.753906 75.214844 72.078125 75.386719 L 77.691406 78.410156 L 77.691406 84.082031 C 77.710938 84.746094 78.261719 85.269531 78.933594 85.25 C 79.570312 85.234375 80.089844 84.71875 80.105469 84.082031 L 80.105469 77.933594 C 80.105469 77.34375 79.785156 76.800781 79.261719 76.519531 L 76.414062 74.984375 C 76.21875 74.878906 76.148438 74.632812 76.257812 74.441406 C 76.296875 74.375 76.347656 74.320312 76.414062 74.285156 L 80.585938 71.898438 C 80.78125 71.789062 81.023438 71.855469 81.136719 72.050781 C 81.140625 72.058594 81.148438 72.066406 81.152344 72.074219 L 82.566406 75.015625 C 82.695312 75.292969 82.976562 75.472656 83.289062 75.472656 L 84.367188 75.472656 L 85.734375 78.417969 C 82.550781 80.222656 81.4375 84.257812 83.25 87.429688 C 85.0625 90.601562 89.109375 91.710938 92.296875 89.90625 C 95.480469 88.101562 96.59375 84.0625 94.78125 80.894531 C 93.183594 78.097656 89.796875 76.851562 86.757812 77.945312 L 85.609375 75.472656 L 88.109375 75.472656 C 88.777344 75.472656 89.316406 74.933594 89.316406 74.265625 C 89.316406 73.605469 88.777344 73.0625 88.109375 73.0625 L 84.554688 73.0625 C 84.402344 73.0625 84.261719 72.976562 84.195312 72.835938 L 82.117188 68.527344 C 81.789062 67.847656 81.105469 67.40625 80.347656 67.386719 " fill-opacity="1" fill-rule="nonzero"/></g><g clip-path="url(#372b9923bb)"><path fill="#05304b" d="M 88.890625 66.351562 C 88.902344 64.691406 87.558594 63.332031 85.886719 63.320312 C 84.214844 63.308594 82.855469 64.644531 82.84375 66.308594 C 82.84375 66.324219 82.84375 66.339844 82.84375 66.351562 C 82.832031 68.015625 84.175781 69.375 85.84375 69.386719 C 87.515625 69.398438 88.878906 68.058594 88.890625 66.394531 C 88.890625 66.382812 88.890625 66.367188 88.890625 66.351562 " fill-opacity="1" fill-rule="nonzero"/></g><g clip-path="url(#22432d38cf)"><path fill="#05304b" d="M 98.683594 91.664062 L 21.578125 91.664062 L 21.578125 90.996094 L 98.683594 90.996094 L 98.683594 91.664062 " fill-opacity="1" fill-rule="nonzero"/></g><g fill="#ffffff" fill-opacity="1"><g transform="translate(126.33476, 90.11314)"><g><path d="M 6.875 -17.828125 C 7.644531 -18.984375 8.613281 -19.953125 9.78125 -20.734375 C 10.945312 -21.515625 12.300781 -21.90625 13.84375 -21.90625 C 15.539062 -21.90625 16.925781 -21.5 18 -20.6875 C 19.070312 -19.882812 19.84375 -18.78125 20.3125 -17.375 C 21.15625 -18.644531 22.160156 -19.71875 23.328125 -20.59375 C 24.492188 -21.46875 25.941406 -21.90625 27.671875 -21.90625 C 28.828125 -21.90625 29.835938 -21.710938 30.703125 -21.328125 C 31.566406 -20.953125 32.285156 -20.410156 32.859375 -19.703125 C 33.441406 -19.003906 33.875 -18.164062 34.15625 -17.1875 C 34.445312 -16.21875 34.59375 -15.144531 34.59375 -13.96875 L 34.59375 0 L 30.890625 0 L 30.890625 -13.671875 C 30.890625 -15.148438 30.546875 -16.347656 29.859375 -17.265625 C 29.171875 -18.191406 28.222656 -18.65625 27.015625 -18.65625 C 26.390625 -18.65625 25.785156 -18.53125 25.203125 -18.28125 C 24.628906 -18.039062 24.082031 -17.707031 23.5625 -17.28125 C 23.039062 -16.851562 22.546875 -16.359375 22.078125 -15.796875 C 21.609375 -15.234375 21.179688 -14.648438 20.796875 -14.046875 L 20.796875 0 L 17.09375 0 L 17.09375 -13.671875 C 17.09375 -15.148438 16.75 -16.347656 16.0625 -17.265625 C 15.375 -18.191406 14.425781 -18.65625 13.21875 -18.65625 C 12.613281 -18.65625 12.019531 -18.535156 11.4375 -18.296875 C 10.863281 -18.066406 10.3125 -17.742188 9.78125 -17.328125 C 9.25 -16.921875 8.75 -16.441406 8.28125 -15.890625 C 7.8125 -15.347656 7.382812 -14.773438 7 -14.171875 L 7 0 L 3.296875 0 L 3.296875 -21.421875 L 6.875 -21.421875 Z M 6.875 -17.828125 "/></g></g></g><g fill="#ffffff" fill-opacity="1"><g transform="translate(164.017995, 90.11314)"><g><path d="M 1.859375 -10.578125 C 1.859375 -12.171875 2.101562 -13.660156 2.59375 -15.046875 C 3.09375 -16.441406 3.785156 -17.644531 4.671875 -18.65625 C 5.566406 -19.675781 6.640625 -20.472656 7.890625 -21.046875 C 9.140625 -21.617188 10.503906 -21.90625 11.984375 -21.90625 C 13.222656 -21.90625 14.34375 -21.691406 15.34375 -21.265625 C 16.34375 -20.847656 17.210938 -20.320312 17.953125 -19.6875 L 17.953125 -21.421875 L 21.328125 -21.421875 L 21.328125 -5.1875 C 21.328125 -4.144531 21.582031 -3.460938 22.09375 -3.140625 C 22.601562 -2.828125 23.160156 -2.671875 23.765625 -2.671875 L 22.984375 0.203125 C 20.347656 0.203125 18.753906 -0.863281 18.203125 -3 C 17.867188 -2.5625 17.488281 -2.128906 17.0625 -1.703125 C 16.644531 -1.285156 16.160156 -0.910156 15.609375 -0.578125 C 15.054688 -0.242188 14.4375 0.015625 13.75 0.203125 C 13.070312 0.398438 12.316406 0.5 11.484375 0.5 C 10.140625 0.5 8.882812 0.238281 7.71875 -0.28125 C 6.550781 -0.8125 5.535156 -1.554688 4.671875 -2.515625 C 3.804688 -3.472656 3.117188 -4.628906 2.609375 -5.984375 C 2.109375 -7.347656 1.859375 -8.878906 1.859375 -10.578125 Z M 12.3125 -2.796875 C 13.351562 -2.796875 14.34375 -3.039062 15.28125 -3.53125 C 16.21875 -4.03125 17 -4.679688 17.625 -5.484375 L 17.625 -16.96875 C 16.882812 -17.488281 16.066406 -17.90625 15.171875 -18.21875 C 14.285156 -18.539062 13.347656 -18.703125 12.359375 -18.703125 C 11.367188 -18.703125 10.460938 -18.507812 9.640625 -18.125 C 8.816406 -17.738281 8.109375 -17.195312 7.515625 -16.5 C 6.921875 -15.800781 6.457031 -14.957031 6.125 -13.96875 C 5.800781 -12.976562 5.640625 -11.890625 5.640625 -10.703125 C 5.640625 -9.554688 5.800781 -8.492188 6.125 -7.515625 C 6.457031 -6.535156 6.925781 -5.695312 7.53125 -5 C 8.132812 -4.300781 8.84375 -3.757812 9.65625 -3.375 C 10.46875 -2.988281 11.351562 -2.796875 12.3125 -2.796875 Z M 12.3125 -2.796875 "/></g></g></g><g fill="#ffffff" fill-opacity="1"><g transform="translate(189.428435, 90.11314)"><g><path d="M 2.4375 -21.421875 C 4.957031 -21.421875 6.535156 -20.414062 7.171875 -18.40625 C 7.359375 -18.707031 7.648438 -19.0625 8.046875 -19.46875 C 8.453125 -19.882812 8.941406 -20.269531 9.515625 -20.625 C 10.085938 -20.988281 10.742188 -21.289062 11.484375 -21.53125 C 12.234375 -21.78125 13.0625 -21.90625 13.96875 -21.90625 C 15.195312 -21.90625 16.378906 -21.65625 17.515625 -21.15625 C 18.660156 -20.664062 19.664062 -19.953125 20.53125 -19.015625 C 21.394531 -18.085938 22.085938 -16.9375 22.609375 -15.5625 C 23.128906 -14.195312 23.390625 -12.648438 23.390625 -10.921875 C 23.390625 -9.210938 23.132812 -7.65625 22.625 -6.25 C 22.125 -4.851562 21.441406 -3.65625 20.578125 -2.65625 C 19.710938 -1.65625 18.710938 -0.878906 17.578125 -0.328125 C 16.453125 0.222656 15.273438 0.5 14.046875 0.5 C 12.753906 0.5 11.566406 0.242188 10.484375 -0.265625 C 9.398438 -0.773438 8.5 -1.359375 7.78125 -2.015625 L 7.78125 9.0625 L 4.078125 9.0625 L 4.078125 -15.9375 C 4.078125 -16.875 3.847656 -17.539062 3.390625 -17.9375 C 2.941406 -18.332031 2.359375 -18.53125 1.640625 -18.53125 Z M 19.609375 -10.796875 C 19.609375 -12.023438 19.4375 -13.125 19.09375 -14.09375 C 18.75 -15.070312 18.28125 -15.90625 17.6875 -16.59375 C 17.09375 -17.28125 16.40625 -17.800781 15.625 -18.15625 C 14.84375 -18.519531 14.015625 -18.703125 13.140625 -18.703125 C 11.960938 -18.703125 10.898438 -18.40625 9.953125 -17.8125 C 9.003906 -17.21875 8.28125 -16.578125 7.78125 -15.890625 L 7.78125 -5.359375 C 8.5 -4.617188 9.316406 -4.003906 10.234375 -3.515625 C 11.148438 -3.035156 12.171875 -2.796875 13.296875 -2.796875 C 14.234375 -2.796875 15.085938 -2.988281 15.859375 -3.375 C 16.628906 -3.757812 17.296875 -4.300781 17.859375 -5 C 18.421875 -5.695312 18.851562 -6.535156 19.15625 -7.515625 C 19.457031 -8.492188 19.609375 -9.585938 19.609375 -10.796875 Z M 19.609375 -10.796875 "/></g></g></g><g fill="#ffffff" fill-opacity="1"><g transform="translate(214.674143, 90.11314)"><g><path d="M 15.28125 -26.484375 C 14.707031 -26.785156 14.085938 -27.054688 13.421875 -27.296875 C 12.765625 -27.546875 12.039062 -27.671875 11.25 -27.671875 C 10.09375 -27.671875 9.160156 -27.304688 8.453125 -26.578125 C 7.753906 -25.859375 7.40625 -24.796875 7.40625 -23.390625 L 7.40625 -20.640625 L 13.75 -20.640625 L 13.75 -17.421875 L 7.40625 -17.421875 L 7.40625 0 L 3.703125 0 L 3.703125 -17.421875 L 0.40625 -17.421875 L 0.40625 -20.640625 L 3.703125 -20.640625 L 3.703125 -23.140625 C 3.703125 -24.347656 3.878906 -25.429688 4.234375 -26.390625 C 4.597656 -27.359375 5.09375 -28.1875 5.71875 -28.875 C 6.351562 -29.5625 7.125 -30.082031 8.03125 -30.4375 C 8.9375 -30.789062 9.925781 -30.96875 11 -30.96875 C 12.15625 -30.96875 13.148438 -30.835938 13.984375 -30.578125 C 14.816406 -30.316406 15.617188 -29.992188 16.390625 -29.609375 Z M 15.28125 -26.484375 "/></g></g></g><g fill="#ffffff" fill-opacity="1"><g transform="translate(229.006128, 90.11314)"><g><path d="M 3.828125 9.5625 C 3.003906 9.5625 2.28125 9.476562 1.65625 9.3125 C 1.039062 9.144531 0.554688 8.953125 0.203125 8.734375 L 1.03125 5.640625 C 1.363281 5.835938 1.769531 6.003906 2.25 6.140625 C 2.726562 6.273438 3.28125 6.34375 3.90625 6.34375 C 4.488281 6.34375 5.03125 6.257812 5.53125 6.09375 C 6.039062 5.925781 6.53125 5.632812 7 5.21875 C 7.46875 4.8125 7.914062 4.25 8.34375 3.53125 C 8.769531 2.820312 9.1875 1.929688 9.59375 0.859375 L 10.546875 -1.609375 L 8.5625 -1.609375 L 0.203125 -20.421875 L 3.5 -21.90625 L 11.484375 -4.078125 L 17.703125 -21.75 L 21.125 -20.421875 L 13.265625 1.078125 C 12.660156 2.722656 12.019531 4.085938 11.34375 5.171875 C 10.675781 6.253906 9.957031 7.125 9.1875 7.78125 C 8.414062 8.4375 7.582031 8.894531 6.6875 9.15625 C 5.800781 9.425781 4.847656 9.5625 3.828125 9.5625 Z M 3.828125 9.5625 "/></g></g></g></svg>