<svg xmlns="http://www.w3.org/2000/svg" xmlns:xlink="http://www.w3.org/1999/xlink" width="350" zoomAndPan="magnify" viewBox="0 0 262.5 112.499997" height="150" preserveAspectRatio="xMidYMid meet" version="1.0"><defs><g/><clipPath id="4973d98c20"><path d="M 11.554688 37 L 39 37 L 39 112.003906 L 11.554688 112.003906 Z M 11.554688 37 " clip-rule="nonzero"/></clipPath><clipPath id="73ad41e105"><path d="M 38 37 L 69 37 L 69 112.003906 L 38 112.003906 Z M 38 37 " clip-rule="nonzero"/></clipPath><clipPath id="7e013709dd"><path d="M 68 37 L 96 37 L 96 112.003906 L 68 112.003906 Z M 68 37 " clip-rule="nonzero"/></clipPath><clipPath id="0d9452697a"><path d="M 95 37 L 125.265625 37 L 125.265625 112.003906 L 95 112.003906 Z M 95 37 " clip-rule="nonzero"/></clipPath><clipPath id="f0d20f45b9"><path d="M 68 43 L 85 43 L 85 112.003906 L 68 112.003906 Z M 68 43 " clip-rule="nonzero"/></clipPath><clipPath id="508f4ae11d"><path d="M 38 37 L 69 37 L 69 112.003906 L 38 112.003906 Z M 38 37 " clip-rule="nonzero"/></clipPath><clipPath id="c18e461c87"><path d="M 95 37 L 125.265625 37 L 125.265625 112.003906 L 95 112.003906 Z M 95 37 " clip-rule="nonzero"/></clipPath><clipPath id="3e54fa32fd"><path d="M 11.554688 45 L 23 45 L 23 112.003906 L 11.554688 112.003906 Z M 11.554688 45 " clip-rule="nonzero"/></clipPath></defs><g clip-path="url(#4973d98c20)"><path fill="#19bf70" d="M 38.867188 101.109375 L 11.570312 112.195312 L 11.867188 49.996094 L 38.867188 37.878906 Z M 38.867188 101.109375 " fill-opacity="1" fill-rule="nonzero"/></g><g clip-path="url(#73ad41e105)"><path fill="#1bea87" d="M 68.578125 112.214844 L 38.867188 101.109375 L 38.867188 37.878906 L 68.578125 49.996094 Z M 68.578125 112.214844 " fill-opacity="1" fill-rule="nonzero"/></g><g clip-path="url(#7e013709dd)"><path fill="#19bf70" d="M 95.539062 100.996094 L 68.578125 112.214844 L 68.578125 49.996094 L 95.539062 37.765625 Z M 95.539062 100.996094 " fill-opacity="1" fill-rule="nonzero"/></g><g clip-path="url(#0d9452697a)"><path fill="#1bea87" d="M 125.246094 112.105469 L 95.539062 100.996094 L 95.539062 37.765625 L 125.246094 49.886719 Z M 125.246094 112.105469 " fill-opacity="1" fill-rule="nonzero"/></g><g clip-path="url(#f0d20f45b9)"><path fill="#14a55d" d="M 80.769531 107.148438 L 68.632812 112.214844 L 68.632812 49.964844 L 84.140625 43.15625 L 76.386719 62.953125 Z M 80.769531 107.148438 " fill-opacity="1" fill-rule="nonzero"/></g><g clip-path="url(#508f4ae11d)"><path fill="#1bea87" d="M 68.578125 112.214844 L 38.867188 101.109375 L 38.867188 37.878906 L 68.578125 49.996094 Z M 68.578125 112.214844 " fill-opacity="1" fill-rule="nonzero"/></g><g clip-path="url(#c18e461c87)"><path fill="#1bea87" d="M 125.246094 112.105469 L 95.539062 100.996094 L 95.539062 37.765625 L 125.246094 49.886719 Z M 125.246094 112.105469 " fill-opacity="1" fill-rule="nonzero"/></g><path fill="#33b1ff" d="M 68.296875 0 C 55.117188 0 44.429688 10.667969 44.429688 23.832031 C 44.429688 43.679688 68.296875 61.777344 68.296875 61.777344 C 68.296875 61.777344 92.164062 42.59375 92.164062 23.832031 C 92.164062 10.667969 81.480469 0 68.296875 0 Z M 68.296875 0 " fill-opacity="1" fill-rule="nonzero"/><path fill="#00cfff" d="M 72.042969 0.292969 C 60.640625 2.085938 51.921875 11.941406 51.921875 23.832031 C 51.921875 38.644531 65.214844 52.484375 71.960938 58.550781 C 78.648438 52.308594 92.164062 37.949219 92.164062 23.832031 C 92.164062 11.941406 83.445312 2.085938 72.042969 0.292969 Z M 72.042969 0.292969 " fill-opacity="1" fill-rule="nonzero"/><path fill="#c7cddd" d="M 77.519531 23.515625 C 77.519531 24.121094 77.460938 24.71875 77.34375 25.3125 C 77.222656 25.90625 77.050781 26.480469 76.816406 27.039062 C 76.585938 27.597656 76.300781 28.128906 75.964844 28.632812 C 75.628906 29.136719 75.246094 29.601562 74.816406 30.027344 C 74.390625 30.457031 73.921875 30.839844 73.417969 31.175781 C 72.917969 31.511719 72.382812 31.792969 71.824219 32.027344 C 71.265625 32.257812 70.6875 32.433594 70.09375 32.550781 C 69.5 32.667969 68.898438 32.726562 68.292969 32.726562 C 67.6875 32.726562 67.089844 32.667969 66.496094 32.550781 C 65.902344 32.433594 65.324219 32.257812 64.765625 32.027344 C 64.203125 31.792969 63.671875 31.511719 63.167969 31.175781 C 62.664062 30.839844 62.199219 30.457031 61.769531 30.027344 C 61.34375 29.601562 60.960938 29.136719 60.625 28.632812 C 60.289062 28.128906 60.003906 27.597656 59.769531 27.039062 C 59.539062 26.480469 59.363281 25.90625 59.246094 25.3125 C 59.128906 24.71875 59.070312 24.121094 59.070312 23.515625 C 59.070312 22.910156 59.128906 22.3125 59.246094 21.71875 C 59.363281 21.125 59.539062 20.550781 59.769531 19.992188 C 60.003906 19.433594 60.289062 18.902344 60.625 18.398438 C 60.960938 17.894531 61.34375 17.429688 61.769531 17.003906 C 62.199219 16.574219 62.664062 16.191406 63.167969 15.855469 C 63.671875 15.519531 64.203125 15.238281 64.765625 15.007812 C 65.324219 14.773438 65.902344 14.601562 66.496094 14.480469 C 67.089844 14.363281 67.6875 14.304688 68.292969 14.304688 C 68.898438 14.304688 69.5 14.363281 70.09375 14.480469 C 70.6875 14.601562 71.265625 14.773438 71.824219 15.007812 C 72.382812 15.238281 72.917969 15.519531 73.417969 15.855469 C 73.921875 16.191406 74.390625 16.574219 74.816406 17.003906 C 75.246094 17.429688 75.628906 17.894531 75.964844 18.398438 C 76.300781 18.902344 76.585938 19.433594 76.816406 19.992188 C 77.050781 20.550781 77.222656 21.125 77.34375 21.71875 C 77.460938 22.3125 77.519531 22.910156 77.519531 23.515625 Z M 77.519531 23.515625 " fill-opacity="1" fill-rule="nonzero"/><path fill="#ffffff" d="M 70.167969 14.496094 C 65.972656 15.359375 62.820312 19.070312 62.820312 23.515625 C 62.820312 27.960938 65.972656 31.671875 70.167969 32.535156 C 74.367188 31.671875 77.519531 27.960938 77.519531 23.515625 C 77.519531 19.070312 74.367188 15.359375 70.167969 14.496094 Z M 70.167969 14.496094 " fill-opacity="1" fill-rule="nonzero"/><g clip-path="url(#3e54fa32fd)"><path fill="#18a05c" d="M 20.992188 45.902344 L 11.867188 49.996094 L 11.570312 112.195312 L 22.042969 107.941406 L 16.808594 60.863281 Z M 20.992188 45.902344 " fill-opacity="1" fill-rule="nonzero"/></g><g fill="#ffffff" fill-opacity="1"><g transform="translate(137.012721, 88.033883)"><g><path d="M 6.328125 -16.40625 C 7.035156 -17.46875 7.925781 -18.359375 9 -19.078125 C 10.070312 -19.804688 11.316406 -20.171875 12.734375 -20.171875 C 14.304688 -20.171875 15.582031 -19.796875 16.5625 -19.046875 C 17.550781 -18.296875 18.257812 -17.28125 18.6875 -16 C 19.46875 -17.15625 20.394531 -18.140625 21.46875 -18.953125 C 22.539062 -19.765625 23.875 -20.171875 25.46875 -20.171875 C 26.53125 -20.171875 27.457031 -19.992188 28.25 -19.640625 C 29.050781 -19.285156 29.71875 -18.785156 30.25 -18.140625 C 30.78125 -17.492188 31.175781 -16.722656 31.4375 -15.828125 C 31.707031 -14.929688 31.84375 -13.9375 31.84375 -12.84375 L 31.84375 0 L 28.421875 0 L 28.421875 -12.578125 C 28.421875 -13.941406 28.101562 -15.046875 27.46875 -15.890625 C 26.84375 -16.742188 25.972656 -17.171875 24.859375 -17.171875 C 24.285156 -17.171875 23.734375 -17.054688 23.203125 -16.828125 C 22.671875 -16.597656 22.164062 -16.285156 21.6875 -15.890625 C 21.207031 -15.503906 20.75 -15.050781 20.3125 -14.53125 C 19.882812 -14.019531 19.492188 -13.484375 19.140625 -12.921875 L 19.140625 0 L 15.734375 0 L 15.734375 -12.578125 C 15.734375 -13.941406 15.414062 -15.046875 14.78125 -15.890625 C 14.144531 -16.742188 13.273438 -17.171875 12.171875 -17.171875 C 11.609375 -17.171875 11.0625 -17.0625 10.53125 -16.84375 C 10 -16.632812 9.488281 -16.335938 9 -15.953125 C 8.507812 -15.578125 8.046875 -15.132812 7.609375 -14.625 C 7.179688 -14.125 6.789062 -13.597656 6.4375 -13.046875 L 6.4375 0 L 3.03125 0 L 3.03125 -19.71875 L 6.328125 -19.71875 Z M 6.328125 -16.40625 "/></g></g></g><g fill="#ffffff" fill-opacity="1"><g transform="translate(171.698329, 88.033883)"><g><path d="M 1.703125 -9.734375 C 1.703125 -11.203125 1.929688 -12.570312 2.390625 -13.84375 C 2.847656 -15.125 3.484375 -16.234375 4.296875 -17.171875 C 5.117188 -18.109375 6.101562 -18.84375 7.25 -19.375 C 8.40625 -19.90625 9.664062 -20.171875 11.03125 -20.171875 C 12.164062 -20.171875 13.191406 -19.972656 14.109375 -19.578125 C 15.035156 -19.179688 15.84375 -18.695312 16.53125 -18.125 L 16.53125 -19.71875 L 19.640625 -19.71875 L 19.640625 -4.78125 C 19.640625 -3.8125 19.867188 -3.179688 20.328125 -2.890625 C 20.796875 -2.609375 21.3125 -2.46875 21.875 -2.46875 L 21.15625 0.1875 C 18.726562 0.1875 17.257812 -0.796875 16.75 -2.765625 C 16.445312 -2.359375 16.097656 -1.957031 15.703125 -1.5625 C 15.316406 -1.175781 14.867188 -0.832031 14.359375 -0.53125 C 13.859375 -0.226562 13.289062 0.0078125 12.65625 0.1875 C 12.03125 0.363281 11.335938 0.453125 10.578125 0.453125 C 9.335938 0.453125 8.179688 0.210938 7.109375 -0.265625 C 6.035156 -0.742188 5.097656 -1.425781 4.296875 -2.3125 C 3.503906 -3.195312 2.875 -4.265625 2.40625 -5.515625 C 1.9375 -6.765625 1.703125 -8.171875 1.703125 -9.734375 Z M 11.328125 -2.578125 C 12.296875 -2.578125 13.207031 -2.800781 14.0625 -3.25 C 14.925781 -3.707031 15.644531 -4.304688 16.21875 -5.046875 L 16.21875 -15.625 C 15.539062 -16.101562 14.789062 -16.484375 13.96875 -16.765625 C 13.144531 -17.054688 12.28125 -17.203125 11.375 -17.203125 C 10.457031 -17.203125 9.617188 -17.023438 8.859375 -16.671875 C 8.109375 -16.316406 7.460938 -15.816406 6.921875 -15.171875 C 6.378906 -14.535156 5.953125 -13.757812 5.640625 -12.84375 C 5.335938 -11.9375 5.1875 -10.941406 5.1875 -9.859375 C 5.1875 -8.796875 5.335938 -7.816406 5.640625 -6.921875 C 5.953125 -6.023438 6.382812 -5.253906 6.9375 -4.609375 C 7.488281 -3.960938 8.132812 -3.460938 8.875 -3.109375 C 9.625 -2.753906 10.441406 -2.578125 11.328125 -2.578125 Z M 11.328125 -2.578125 "/></g></g></g><g fill="#ffffff" fill-opacity="1"><g transform="translate(195.087421, 88.033883)"><g><path d="M 2.234375 -19.71875 C 4.554688 -19.71875 6.007812 -18.789062 6.59375 -16.9375 C 6.769531 -17.21875 7.039062 -17.546875 7.40625 -17.921875 C 7.769531 -18.304688 8.21875 -18.660156 8.75 -18.984375 C 9.28125 -19.316406 9.882812 -19.597656 10.5625 -19.828125 C 11.25 -20.054688 12.007812 -20.171875 12.84375 -20.171875 C 13.988281 -20.171875 15.082031 -19.941406 16.125 -19.484375 C 17.175781 -19.023438 18.097656 -18.363281 18.890625 -17.5 C 19.691406 -16.644531 20.332031 -15.585938 20.8125 -14.328125 C 21.289062 -13.066406 21.53125 -11.640625 21.53125 -10.046875 C 21.53125 -8.472656 21.296875 -7.039062 20.828125 -5.75 C 20.359375 -4.46875 19.722656 -3.363281 18.921875 -2.4375 C 18.128906 -1.519531 17.210938 -0.804688 16.171875 -0.296875 C 15.140625 0.203125 14.054688 0.453125 12.921875 0.453125 C 11.734375 0.453125 10.640625 0.21875 9.640625 -0.25 C 8.648438 -0.71875 7.828125 -1.253906 7.171875 -1.859375 L 7.171875 8.34375 L 3.75 8.34375 L 3.75 -14.671875 C 3.75 -15.523438 3.539062 -16.132812 3.125 -16.5 C 2.707031 -16.875 2.171875 -17.0625 1.515625 -17.0625 Z M 18.046875 -9.9375 C 18.046875 -11.070312 17.882812 -12.085938 17.5625 -12.984375 C 17.25 -13.878906 16.820312 -14.640625 16.28125 -15.265625 C 15.738281 -15.898438 15.109375 -16.378906 14.390625 -16.703125 C 13.671875 -17.035156 12.90625 -17.203125 12.09375 -17.203125 C 11.007812 -17.203125 10.03125 -16.929688 9.15625 -16.390625 C 8.28125 -15.847656 7.617188 -15.257812 7.171875 -14.625 L 7.171875 -4.921875 C 7.828125 -4.242188 8.578125 -3.679688 9.421875 -3.234375 C 10.265625 -2.796875 11.207031 -2.578125 12.25 -2.578125 C 13.101562 -2.578125 13.882812 -2.753906 14.59375 -3.109375 C 15.300781 -3.460938 15.910156 -3.960938 16.421875 -4.609375 C 16.941406 -5.253906 17.34375 -6.023438 17.625 -6.921875 C 17.90625 -7.816406 18.046875 -8.820312 18.046875 -9.9375 Z M 18.046875 -9.9375 "/></g></g></g><g fill="#ffffff" fill-opacity="1"><g transform="translate(218.324885, 88.033883)"><g><path d="M 14.0625 -24.375 C 13.53125 -24.65625 12.960938 -24.90625 12.359375 -25.125 C 11.753906 -25.351562 11.082031 -25.46875 10.34375 -25.46875 C 9.28125 -25.46875 8.425781 -25.132812 7.78125 -24.46875 C 7.144531 -23.800781 6.828125 -22.820312 6.828125 -21.53125 L 6.828125 -18.984375 L 12.65625 -18.984375 L 12.65625 -16.03125 L 6.828125 -16.03125 L 6.828125 0 L 3.40625 0 L 3.40625 -16.03125 L 0.375 -16.03125 L 0.375 -18.984375 L 3.40625 -18.984375 L 3.40625 -21.296875 C 3.40625 -22.410156 3.566406 -23.410156 3.890625 -24.296875 C 4.222656 -25.179688 4.679688 -25.9375 5.265625 -26.5625 C 5.847656 -27.195312 6.554688 -27.675781 7.390625 -28 C 8.222656 -28.332031 9.132812 -28.5 10.125 -28.5 C 11.1875 -28.5 12.101562 -28.378906 12.875 -28.140625 C 13.644531 -27.898438 14.382812 -27.601562 15.09375 -27.25 Z M 14.0625 -24.375 "/></g></g></g><g fill="#ffffff" fill-opacity="1"><g transform="translate(231.516785, 88.033883)"><g><path d="M 3.53125 8.796875 C 2.769531 8.796875 2.101562 8.71875 1.53125 8.5625 C 0.96875 8.414062 0.519531 8.238281 0.1875 8.03125 L 0.953125 5.1875 C 1.253906 5.363281 1.625 5.515625 2.0625 5.640625 C 2.507812 5.773438 3.019531 5.84375 3.59375 5.84375 C 4.125 5.84375 4.625 5.765625 5.09375 5.609375 C 5.5625 5.453125 6.007812 5.1875 6.4375 4.8125 C 6.875 4.4375 7.285156 3.921875 7.671875 3.265625 C 8.066406 2.609375 8.453125 1.785156 8.828125 0.796875 L 9.703125 -1.484375 L 7.890625 -1.484375 L 0.1875 -18.796875 L 3.21875 -20.171875 L 10.578125 -3.75 L 16.296875 -20.015625 L 19.453125 -18.796875 L 12.203125 0.984375 C 11.648438 2.503906 11.0625 3.757812 10.4375 4.75 C 9.820312 5.75 9.160156 6.550781 8.453125 7.15625 C 7.742188 7.769531 6.976562 8.195312 6.15625 8.4375 C 5.332031 8.675781 4.457031 8.796875 3.53125 8.796875 Z M 3.53125 8.796875 "/></g></g></g></svg>